<svg width="185" height="38" viewBox="0 0 185 38" fill="none" xmlns="http://www.w3.org/2000/svg">
<path d="M0 19C0 14.9005 1.29832 11.1043 3.50621 8H13V9.77893C9.98979 11.7416 8 15.1384 8 19C8 25.0751 12.9249 30 19 30V38C8.50659 38 0 29.4934 0 19Z" fill="#0A0D12"/>
<path d="M34.4938 30C36.7017 26.8957 38 23.0995 38 19C38 8.50659 29.4934 0 19 0V8C25.0751 8 30 12.9249 30 19C30 22.8616 28.0102 26.2584 25 28.2211V30H34.4938Z" fill="#0A0D12"/>
<path d="M49.7067 28.5V8.86364H53.8583V25.0771H62.2766V28.5H49.7067ZM69.0338 8.86364V28.5H64.9493V8.86364H69.0338ZM76.5053 28.7781C75.5657 28.7781 74.7283 28.6151 73.9933 28.2891C73.2582 27.9567 72.6765 27.4677 72.2482 26.8221C71.8263 26.1701 71.6154 25.3583 71.6154 24.3867C71.6154 23.5685 71.7656 22.8814 72.0661 22.3253C72.3665 21.7692 72.7756 21.3217 73.2933 20.983C73.8111 20.6442 74.3991 20.3885 75.0575 20.2159C75.7223 20.0433 76.419 19.9219 77.1477 19.8516C78.0043 19.7621 78.6946 19.679 79.2188 19.6023C79.7429 19.5192 80.1232 19.3977 80.3597 19.2379C80.5962 19.0781 80.7145 18.8416 80.7145 18.5284V18.4709C80.7145 17.8636 80.5227 17.3938 80.1392 17.0614C79.7621 16.729 79.2251 16.5629 78.5284 16.5629C77.7933 16.5629 77.2085 16.7259 76.7738 17.0518C76.3391 17.3714 76.0515 17.7741 75.9109 18.2599L72.1332 17.9531C72.3249 17.0582 72.7021 16.2848 73.2646 15.6328C73.8271 14.9744 74.5526 14.4695 75.4411 14.1179C76.3359 13.7599 77.3714 13.581 78.5476 13.581C79.3658 13.581 80.1488 13.6768 80.8967 13.8686C81.6509 14.0604 82.3189 14.3576 82.9006 14.7603C83.4886 15.163 83.9521 15.6808 84.2908 16.3136C84.6296 16.94 84.799 17.6911 84.799 18.5668V28.5H80.9254V26.4577H80.8104C80.5739 26.918 80.2575 27.3239 79.8612 27.6754C79.4648 28.0206 78.9886 28.2923 78.4325 28.4904C77.8764 28.6822 77.234 28.7781 76.5053 28.7781ZM77.6751 25.9592C78.2759 25.9592 78.8065 25.8409 79.2667 25.6044C79.7269 25.3615 80.0881 25.0355 80.3501 24.6264C80.6122 24.2173 80.7433 23.7539 80.7433 23.2362V21.6733C80.6154 21.7564 80.4396 21.8331 80.2159 21.9034C79.9986 21.9673 79.7525 22.0281 79.4776 22.0856C79.2028 22.1367 78.9279 22.1847 78.6531 22.2294C78.3782 22.2678 78.1289 22.3029 77.9052 22.3349C77.4258 22.4052 77.0071 22.517 76.6491 22.6705C76.2912 22.8239 76.0131 23.0316 75.815 23.2937C75.6168 23.5494 75.5178 23.869 75.5178 24.2525C75.5178 24.8086 75.7191 25.2337 76.1218 25.5277C76.5309 25.8153 77.0487 25.9592 77.6751 25.9592ZM87.9679 28.5V13.7727H91.8606V16.3711H92.0332C92.34 15.5082 92.8514 14.8274 93.5673 14.3288C94.2832 13.8303 95.1397 13.581 96.1369 13.581C97.1468 13.581 98.0066 13.8335 98.7161 14.3384C99.4256 14.837 99.8986 15.5146 100.135 16.3711H100.289C100.589 15.5273 101.132 14.853 101.919 14.348C102.711 13.8366 103.648 13.581 104.728 13.581C106.102 13.581 107.218 14.0188 108.074 14.8945C108.937 15.7638 109.368 16.9975 109.368 18.5955V28.5H105.294V19.4009C105.294 18.5827 105.076 17.9691 104.642 17.56C104.207 17.1509 103.664 16.9464 103.012 16.9464C102.27 16.9464 101.692 17.1829 101.276 17.6559C100.861 18.1225 100.653 18.7393 100.653 19.5064V28.5H96.693V19.3146C96.693 18.5923 96.4853 18.017 96.0698 17.5888C95.6607 17.1605 95.1206 16.9464 94.4494 16.9464C93.9956 16.9464 93.5865 17.0614 93.2221 17.2915C92.8642 17.5153 92.5797 17.8317 92.3688 18.2408C92.1578 18.6435 92.0524 19.1165 92.0524 19.6598V28.5H87.9679ZM116.794 28.7781C115.855 28.7781 115.017 28.6151 114.282 28.2891C113.547 27.9567 112.966 27.4677 112.537 26.8221C112.115 26.1701 111.904 25.3583 111.904 24.3867C111.904 23.5685 112.055 22.8814 112.355 22.3253C112.656 21.7692 113.065 21.3217 113.582 20.983C114.1 20.6442 114.688 20.3885 115.347 20.2159C116.011 20.0433 116.708 19.9219 117.437 19.8516C118.293 19.7621 118.984 19.679 119.508 19.6023C120.032 19.5192 120.412 19.3977 120.649 19.2379C120.885 19.0781 121.004 18.8416 121.004 18.5284V18.4709C121.004 17.8636 120.812 17.3938 120.428 17.0614C120.051 16.729 119.514 16.5629 118.817 16.5629C118.082 16.5629 117.498 16.7259 117.063 17.0518C116.628 17.3714 116.341 17.7741 116.2 18.2599L112.422 17.9531C112.614 17.0582 112.991 16.2848 113.554 15.6328C114.116 14.9744 114.842 14.4695 115.73 14.1179C116.625 13.7599 117.661 13.581 118.837 13.581C119.655 13.581 120.438 13.6768 121.186 13.8686C121.94 14.0604 122.608 14.3576 123.19 14.7603C123.778 15.163 124.241 15.6808 124.58 16.3136C124.919 16.94 125.088 17.6911 125.088 18.5668V28.5H121.214V26.4577H121.099C120.863 26.918 120.547 27.3239 120.15 27.6754C119.754 28.0206 119.278 28.2923 118.722 28.4904C118.165 28.6822 117.523 28.7781 116.794 28.7781ZM117.964 25.9592C118.565 25.9592 119.096 25.8409 119.556 25.6044C120.016 25.3615 120.377 25.0355 120.639 24.6264C120.901 24.2173 121.032 23.7539 121.032 23.2362V21.6733C120.904 21.7564 120.729 21.8331 120.505 21.9034C120.288 21.9673 120.042 22.0281 119.767 22.0856C119.492 22.1367 119.217 22.1847 118.942 22.2294C118.667 22.2678 118.418 22.3029 118.194 22.3349C117.715 22.4052 117.296 22.517 116.938 22.6705C116.58 22.8239 116.302 23.0316 116.104 23.2937C115.906 23.5494 115.807 23.869 115.807 24.2525C115.807 24.8086 116.008 25.2337 116.411 25.5277C116.82 25.8153 117.338 25.9592 117.964 25.9592ZM136.177 13.7727V16.8409H127.087V13.7727H136.177ZM129.168 28.5V12.7085C129.168 11.641 129.376 10.7557 129.791 10.0526C130.213 9.34943 130.788 8.82209 131.517 8.47052C132.246 8.11896 133.073 7.94318 134 7.94318C134.627 7.94318 135.199 7.99112 135.716 8.087C136.241 8.18288 136.631 8.26918 136.886 8.34588L136.157 11.4141C135.998 11.3629 135.8 11.315 135.563 11.2702C135.333 11.2255 135.096 11.2031 134.854 11.2031C134.253 11.2031 133.834 11.3438 133.597 11.625C133.361 11.8999 133.243 12.2866 133.243 12.7852V28.5H129.168ZM144.799 28.7876C143.309 28.7876 142.021 28.4712 140.935 27.8384C139.854 27.1992 139.02 26.3107 138.432 25.1729C137.844 24.0288 137.55 22.7024 137.55 21.1939C137.55 19.6726 137.844 18.343 138.432 17.2053C139.02 16.0611 139.854 15.1726 140.935 14.5398C142.021 13.9006 143.309 13.581 144.799 13.581C146.288 13.581 147.573 13.9006 148.653 14.5398C149.74 15.1726 150.577 16.0611 151.165 17.2053C151.753 18.343 152.047 19.6726 152.047 21.1939C152.047 22.7024 151.753 24.0288 151.165 25.1729C150.577 26.3107 149.74 27.1992 148.653 27.8384C147.573 28.4712 146.288 28.7876 144.799 28.7876ZM144.818 25.6236C145.495 25.6236 146.061 25.4318 146.515 25.0483C146.969 24.6584 147.311 24.1278 147.541 23.4567C147.777 22.7855 147.896 22.0217 147.896 21.1651C147.896 20.3086 147.777 19.5447 147.541 18.8736C147.311 18.2024 146.969 17.6719 146.515 17.282C146.061 16.892 145.495 16.6971 144.818 16.6971C144.134 16.6971 143.559 16.892 143.092 17.282C142.632 17.6719 142.283 18.2024 142.047 18.8736C141.817 19.5447 141.702 20.3086 141.702 21.1651C141.702 22.0217 141.817 22.7855 142.047 23.4567C142.283 24.1278 142.632 24.6584 143.092 25.0483C143.559 25.4318 144.134 25.6236 144.818 25.6236ZM158.788 8.86364V28.5H154.703V8.86364H158.788ZM162.06 28.5V13.7727H166.144V28.5H162.06ZM164.112 11.8743C163.504 11.8743 162.983 11.6729 162.549 11.2702C162.12 10.8611 161.906 10.3722 161.906 9.80327C161.906 9.24077 162.12 8.75817 162.549 8.35547C162.983 7.94638 163.504 7.74183 164.112 7.74183C164.719 7.74183 165.237 7.94638 165.665 8.35547C166.099 8.75817 166.317 9.24077 166.317 9.80327C166.317 10.3722 166.099 10.8611 165.665 11.2702C165.237 11.6729 164.719 11.8743 164.112 11.8743ZM176.07 28.7876C174.581 28.7876 173.293 28.4712 172.206 27.8384C171.126 27.1992 170.292 26.3107 169.704 25.1729C169.116 24.0288 168.822 22.7024 168.822 21.1939C168.822 19.6726 169.116 18.343 169.704 17.2053C170.292 16.0611 171.126 15.1726 172.206 14.5398C173.293 13.9006 174.581 13.581 176.07 13.581C177.56 13.581 178.844 13.9006 179.925 14.5398C181.011 15.1726 181.849 16.0611 182.437 17.2053C183.025 18.343 183.319 19.6726 183.319 21.1939C183.319 22.7024 183.025 24.0288 182.437 25.1729C181.849 26.3107 181.011 27.1992 179.925 27.8384C178.844 28.4712 177.56 28.7876 176.07 28.7876ZM176.089 25.6236C176.767 25.6236 177.333 25.4318 177.786 25.0483C178.24 24.6584 178.582 24.1278 178.812 23.4567C179.049 22.7855 179.167 22.0217 179.167 21.1651C179.167 20.3086 179.049 19.5447 178.812 18.8736C178.582 18.2024 178.24 17.6719 177.786 17.282C177.333 16.892 176.767 16.6971 176.089 16.6971C175.405 16.6971 174.83 16.892 174.364 17.282C173.903 17.6719 173.555 18.2024 173.318 18.8736C173.088 19.5447 172.973 20.3086 172.973 21.1651C172.973 22.0217 173.088 22.7855 173.318 23.4567C173.555 24.1278 173.903 24.6584 174.364 25.0483C174.83 25.4318 175.405 25.6236 176.089 25.6236Z" fill="#0A0D12"/>
</svg>
